<svg id="Layer_1" height="512" viewBox="0 0 512 512" width="512" xmlns="http://www.w3.org/2000/svg" data-name="Layer 1"><path d="m474 288.693h-78.518v-4.807a7 7 0 0 0 -7-7h-115.922a7 7 0 0 0 -7 7v4.807h-195.084v-239.753c0-8.182 7.652-14.838 17.057-14.838h37.288c7.195 0 13.349 3.9 15.852 9.393-10.653 1.367-19.306 8.659-21.994 18.225a33.715 33.715 0 0 0 -26.863 32.968 7 7 0 0 0 7 7h2.05v3.112c0 8.506 7.3 15.427 16.282 15.427h64.52c8.978 0 16.282-6.921 16.282-15.427v-3.113h2.05a7 7 0 0 0 7-7 33.708 33.708 0 0 0 -28.355-33.236c-2.884-9.837-12.139-17.24-23.358-18.1-2.811-13.234-15.4-23.247-30.466-23.247h-37.288c-17.125 0-31.057 12.937-31.057 28.838v239.751h-18.476a19.022 19.022 0 0 0 -19 19v13.322a7 7 0 0 0 7 7h21.656l31.691 108.465c.043.151.091.3.145.445a49.4 49.4 0 0 0 39.855 31.857 26.691 26.691 0 0 0 52.84.423h167.626a26.691 26.691 0 0 0 52.84-.423 49.4 49.4 0 0 0 39.855-31.857c.054-.147.1-.294.145-.445l31.691-108.465h21.656a7 7 0 0 0 7-7v-13.322a19.022 19.022 0 0 0 -19-19zm-290.05-183.893c0 .582-.888 1.427-2.282 1.427h-64.52c-1.393 0-2.282-.845-2.282-1.427v-3.113h69.084zm-10.608-29.77a19.691 19.691 0 0 1 18.37 12.658h-84.612a19.693 19.693 0 0 1 18.375-12.658zm-20.251-17.772a13.4 13.4 0 0 1 9.5 3.772h-27.791a13.4 13.4 0 0 1 9.5-3.772zm126.469 233.628h101.922v62.214h-101.922zm0 76.216h101.922v6.329h-101.922zm0 20.329h101.922v13.282h-101.922zm-246.56-73.416v-6.322a5.006 5.006 0 0 1 5-5h227.56v11.322zm112.794 163.885a12.708 12.708 0 0 1 -12.038-8.693h24.075a12.708 12.708 0 0 1 -12.037 8.693zm220.412 0a12.708 12.708 0 0 1 -12.037-8.693h24.075a12.708 12.708 0 0 1 -12.038 8.693zm53.078-45.578a35.322 35.322 0 0 1 -32.977 22.885h-260.614a35.322 35.322 0 0 1 -32.977-22.887l-30.475-104.3h203.319v31.951c0 .046-.007.09-.007.136s.006.089.007.135v20.058c0 .046-.007.09-.007.136s.006.09.007.135v27.147a7 7 0 0 0 7 7h2.83v5.553a7 7 0 0 0 14 0v-5.553h18.091v5.553a7 7 0 1 0 14 0v-5.553h18.092v5.553a7 7 0 0 0 14 0v-5.553h18.092v5.553a7 7 0 0 0 14 0v-5.553h2.817a7 7 0 0 0 7-7v-79.7h54.277zm59.716-118.307h-83.518v-11.322h78.518a5.006 5.006 0 0 1 5 5z"/><path d="m142 131v32a7 7 0 0 0 14 0v-32a7 7 0 0 0 -14 0z"/><path d="m175 128a7 7 0 0 0 -7 7v20a7 7 0 0 0 14 0v-20a7 7 0 0 0 -7-7z"/><path d="m117 136v12a7 7 0 0 0 14 0v-12a7 7 0 0 0 -14 0z"/></svg>