<svg id="icons" enable-background="new 0 0 64 64" height="512" viewBox="0 0 64 64" width="512" xmlns="http://www.w3.org/2000/svg"><path d="m4.001 61.512h55.998c2.206 0 4-1.794 4-4v-1c0-.553-.447-1-1-1h-1v-4.99c-.001-15.415-11.689-28.145-26.667-29.807.42-.633.667-1.39.667-2.205 0-2.206-1.794-4-4-4s-4 1.794-4 4c0 .815.247 1.572.668 2.205-14.977 1.665-26.663 14.393-26.664 29.806v4.99h-1-.001-.001c-.553 0-1 .447-1 1v1c0 2.207 1.794 4.001 4 4.001zm27.998-45.002c1.103 0 2 .897 2 2s-.897 2-2 2-2-.897-2-2 .897-2 2-2zm-27.996 34.013c0-15.438 12.56-27.998 27.998-27.998s27.998 12.56 27.998 27.998v4.988h-55.996zm57.996 6.989c0 1.103-.897 2-2 2h-55.998c-1.103 0-2-.897-2-2z"/><path d="m31.987 24.51c-.553 0-1 .447-1 1s.447 1 1 1c13.24 0 24.012 10.771 24.012 24.012 0 .553.447 1 1 1s1-.447 1-1c0-14.343-11.669-26.012-26.012-26.012z"/><path d="m17.285 18.226c.196.203.458.306.72.306.25 0 .501-.093.694-.28 1.254-1.211 2.892-4.51.114-8.329-2.383-3.276-.357-5.471-.11-5.718.394-.385.403-1.015.021-1.41-.383-.396-1.018-.409-1.414-.025-1.254 1.211-2.892 4.51-.114 8.329 2.388 3.283.349 5.479.114 5.714-.397.382-.408 1.015-.025 1.413z"/><path d="m45.25 18.226c.196.203.458.306.72.306.25 0 .501-.093.694-.28 1.254-1.211 2.892-4.51.114-8.329-2.383-3.276-.357-5.471-.11-5.718.394-.385.403-1.015.021-1.41-.383-.396-1.018-.409-1.414-.025-1.254 1.211-2.892 4.51-.114 8.329 2.388 3.283.349 5.479.114 5.714-.397.382-.408 1.015-.025 1.413z"/><path d="m32.721 2.794c-.383-.396-1.018-.409-1.414-.025-1.254 1.211-2.892 4.51-.114 8.329.195.27.5.412.81.412.204 0 .409-.063.587-.191.447-.324.546-.95.221-1.396-2.384-3.278-.354-5.474-.109-5.719.391-.385.401-1.015.019-1.41z"/></svg>