<?xml version="1.0" encoding="UTF-8"?>
<!DOCTYPE svg PUBLIC "-//W3C//DTD SVG 1.1//EN" "http://www.w3.org/Graphics/SVG/1.1/DTD/svg11.dtd">
<svg version="1.2" width="135.47mm" height="135.47mm" viewBox="0 0 13547 13547" preserveAspectRatio="xMidYMid" fill-rule="evenodd" stroke-width="28.222" stroke-linejoin="round" xmlns="http://www.w3.org/2000/svg" xmlns:ooo="http://xml.openoffice.org/svg/export" xmlns:xlink="http://www.w3.org/1999/xlink" xmlns:presentation="http://sun.com/xmlns/staroffice/presentation" xmlns:smil="http://www.w3.org/2001/SMIL20/" xmlns:anim="urn:oasis:names:tc:opendocument:xmlns:animation:1.0" xml:space="preserve">
 <defs class="ClipPathGroup">
  <clipPath id="presentation_clip_path" clipPathUnits="userSpaceOnUse">
   <rect x="0" y="0" width="13547" height="13547"/>
  </clipPath>
  <clipPath id="presentation_clip_path_shrink" clipPathUnits="userSpaceOnUse">
   <rect x="13" y="13" width="13520" height="13520"/>
  </clipPath>
 </defs>
 <defs class="TextShapeIndex">
  <g ooo:slide="id1" ooo:id-list="id3"/>
 </defs>
 <defs class="EmbeddedBulletChars">
  <g id="bullet-char-template-57356" transform="scale(0.00048828125,-0.00048828125)">
   <path d="M 580,1141 L 1163,571 580,0 -4,571 580,1141 Z"/>
  </g>
  <g id="bullet-char-template-57354" transform="scale(0.00048828125,-0.00048828125)">
   <path d="M 8,1128 L 1137,1128 1137,0 8,0 8,1128 Z"/>
  </g>
  <g id="bullet-char-template-10146" transform="scale(0.00048828125,-0.00048828125)">
   <path d="M 174,0 L 602,739 174,1481 1456,739 174,0 Z M 1358,739 L 309,1346 659,739 1358,739 Z"/>
  </g>
  <g id="bullet-char-template-10132" transform="scale(0.00048828125,-0.00048828125)">
   <path d="M 2015,739 L 1276,0 717,0 1260,543 174,543 174,936 1260,936 717,1481 1274,1481 2015,739 Z"/>
  </g>
  <g id="bullet-char-template-10007" transform="scale(0.00048828125,-0.00048828125)">
   <path d="M 0,-2 C -7,14 -16,27 -25,37 L 356,567 C 262,823 215,952 215,954 215,979 228,992 255,992 264,992 276,990 289,987 310,991 331,999 354,1012 L 381,999 492,748 772,1049 836,1024 860,1049 C 881,1039 901,1025 922,1006 886,937 835,863 770,784 769,783 710,716 594,584 L 774,223 C 774,196 753,168 711,139 L 727,119 C 717,90 699,76 672,76 641,76 570,178 457,381 L 164,-76 C 142,-110 111,-127 72,-127 30,-127 9,-110 8,-76 1,-67 -2,-52 -2,-32 -2,-23 -1,-13 0,-2 Z"/>
  </g>
  <g id="bullet-char-template-10004" transform="scale(0.00048828125,-0.00048828125)">
   <path d="M 285,-33 C 182,-33 111,30 74,156 52,228 41,333 41,471 41,549 55,616 82,672 116,743 169,778 240,778 293,778 328,747 346,684 L 369,508 C 377,444 397,411 428,410 L 1163,1116 C 1174,1127 1196,1133 1229,1133 1271,1133 1292,1118 1292,1087 L 1292,965 C 1292,929 1282,901 1262,881 L 442,47 C 390,-6 338,-33 285,-33 Z"/>
  </g>
  <g id="bullet-char-template-9679" transform="scale(0.00048828125,-0.00048828125)">
   <path d="M 813,0 C 632,0 489,54 383,161 276,268 223,411 223,592 223,773 276,916 383,1023 489,1130 632,1184 813,1184 992,1184 1136,1130 1245,1023 1353,916 1407,772 1407,592 1407,412 1353,268 1245,161 1136,54 992,0 813,0 Z"/>
  </g>
  <g id="bullet-char-template-8226" transform="scale(0.00048828125,-0.00048828125)">
   <path d="M 346,457 C 273,457 209,483 155,535 101,586 74,649 74,723 74,796 101,859 155,911 209,963 273,989 346,989 419,989 480,963 531,910 582,859 608,796 608,723 608,648 583,586 532,535 482,483 420,457 346,457 Z"/>
  </g>
  <g id="bullet-char-template-8211" transform="scale(0.00048828125,-0.00048828125)">
   <path d="M -4,459 L 1135,459 1135,606 -4,606 -4,459 Z"/>
  </g>
  <g id="bullet-char-template-61548" transform="scale(0.00048828125,-0.00048828125)">
   <path d="M 173,740 C 173,903 231,1043 346,1159 462,1274 601,1332 765,1332 928,1332 1067,1274 1183,1159 1299,1043 1357,903 1357,740 1357,577 1299,437 1183,322 1067,206 928,148 765,148 601,148 462,206 346,322 231,437 173,577 173,740 Z"/>
  </g>
 </defs>
 <defs class="TextEmbeddedBitmaps"/>
 <g>
  <g id="id2" class="Master_Slide">
   <g id="bg-id2" class="Background"/>
   <g id="bo-id2" class="BackgroundObjects"/>
  </g>
 </g>
 <g class="SlideGroup">
  <g>
   <g id="container-id1">
    <g id="id1" class="Slide" clip-path="url(#presentation_clip_path)">
     <g class="Page">
      <g class="Graphic">
       <g id="id3">
        <rect class="BoundingBox" stroke="none" fill="none" x="0" y="0" width="13547" height="13547"/>
        <defs>
         <clipPath id="clip_path_1" clipPathUnits="userSpaceOnUse">
          <path d="M 0,0 L 13546,0 13546,13546 0,13546 0,0 Z"/>
         </clipPath>
        </defs>
        <g clip-path="url(#clip_path_1)">
         <path fill="rgb(105,195,207)" stroke="none" d="M 12638,3387 C 12524,3185 12339,3032 12119,2959 11902,2886 11663,2908 11464,3021 11328,3108 11207,3219 11109,3348 11038,3437 10958,3518 10870,3590 10040,2520 8824,1816 7483,1630 7500,1518 7529,1408 7571,1302 7632,1154 7668,996 7676,835 7640,364 7246,0 6773,0 6300,0 5906,364 5870,835 5878,996 5914,1154 5975,1302 6017,1408 6046,1518 6063,1630 4722,1816 3507,2519 2677,3589 2589,3517 2508,3437 2437,3348 2339,3220 2219,3109 2082,3021 1883,2908 1645,2886 1428,2960 1208,3033 1023,3185 908,3387 653,3793 774,4330 1179,4587 1322,4660 1477,4708 1637,4729 1749,4747 1859,4776 1965,4817 1453,6071 1453,7476 1965,8730 1859,8771 1749,8800 1637,8818 1477,8839 1322,8887 1179,8960 774,9218 653,9753 908,10160 1022,10361 1207,10514 1427,10587 1512,10615 1601,10629 1691,10629 1828,10629 1963,10594 2082,10525 2218,10438 2338,10327 2437,10198 2508,10109 2588,10028 2676,9956 3506,11026 4722,11730 6063,11916 6046,12028 6017,12138 5975,12244 5914,12392 5878,12550 5870,12711 5906,13182 6300,13546 6773,13546 7246,13546 7640,13182 7676,12711 7668,12550 7632,12392 7571,12244 7529,12138 7500,12028 7483,11916 8824,11730 10040,11027 10870,9957 10959,10029 11039,10109 11110,10198 11208,10326 11329,10437 11465,10525 11584,10593 11719,10629 11856,10629 11946,10628 12035,10614 12120,10586 12339,10513 12524,10361 12638,10160 12893,9753 12772,9216 12367,8959 12224,8886 12069,8838 11909,8817 11797,8799 11687,8770 11581,8729 12093,7475 12093,6070 11581,4816 11687,4775 11797,4746 11909,4728 12069,4708 12225,4660 12368,4586 12773,4329 12893,3793 12638,3387 Z M 7225,835 C 7215,944 7188,1051 7145,1151 7091,1292 7055,1437 7034,1586 6948,1582 6861,1580 6773,1580 6685,1580 6598,1583 6512,1587 6492,1438 6455,1292 6401,1151 6358,1051 6331,944 6321,835 6342,606 6543,435 6773,452 7003,435 7204,606 7225,835 Z M 1405,4196 C 1216,4063 1170,3803 1300,3612 1358,3508 1453,3428 1566,3390 1662,3356 1768,3364 1856,3414 1947,3477 2027,3554 2093,3643 2189,3759 2297,3864 2416,3955 2321,4102 2233,4253 2153,4408 2014,4350 1868,4309 1719,4285 1610,4271 1504,4242 1405,4196 Z M 2093,9904 C 2027,9992 1947,10070 1856,10133 1767,10182 1662,10190 1566,10156 1453,10117 1358,10038 1299,9934 1169,9743 1216,9484 1404,9351 1504,9305 1610,9275 1719,9262 1868,9237 2013,9196 2152,9139 2233,9294 2320,9445 2416,9591 2297,9683 2189,9788 2093,9904 Z M 6773,13094 C 6543,13111 6342,12940 6321,12711 6331,12602 6358,12495 6401,12395 6455,12254 6491,12109 6512,11960 6598,11964 6685,11966 6773,11966 6861,11966 6948,11963 7034,11959 7055,12108 7091,12253 7145,12394 7188,12495 7215,12601 7225,12711 7204,12940 7003,13111 6773,13094 Z M 6773,11514 C 4155,11514 2032,9391 2032,6773 2032,4155 4155,2032 6773,2032 9391,2032 11514,4155 11514,6773 11511,9390 9390,11511 6773,11514 Z M 12141,9350 C 12330,9483 12376,9743 12246,9934 12188,10038 12093,10118 11980,10156 11884,10190 11778,10182 11690,10132 11599,10069 11519,9992 11453,9903 11357,9787 11249,9682 11130,9591 11225,9444 11313,9293 11393,9138 11532,9196 11678,9237 11827,9261 11936,9275 12042,9304 12141,9350 Z M 11394,4407 C 11313,4252 11226,4101 11130,3955 11249,3863 11357,3758 11452,3642 11518,3554 11598,3476 11689,3413 11778,3364 11883,3355 11979,3389 12092,3428 12188,3508 12246,3613 12376,3803 12329,4063 12141,4196 12041,4241 11935,4271 11826,4285 11678,4309 11533,4351 11394,4408 L 11394,4407 Z"/>
         <path fill="rgb(105,195,207)" stroke="none" d="M 10299,8288 L 10300,8285 C 10715,7320 10715,6226 10300,5261 L 10299,5258 C 10181,4989 10033,4733 9857,4498 9855,4491 9853,4485 9850,4478 9836,4455 9818,4434 9797,4418 9072,3483 7956,2936 6774,2936 5592,2936 4476,3483 3751,4418 3730,4434 3712,4455 3698,4479 3695,4485 3693,4492 3691,4498 3515,4734 3367,4989 3249,5259 L 3248,5262 C 2833,6227 2833,7320 3248,8285 L 3249,8288 3249,8290 C 3367,8559 3515,8814 3691,9050 3693,9057 3695,9063 3697,9069 3711,9092 3729,9113 3750,9129 4371,9927 5281,10446 6283,10576 6296,10580 6308,10583 6321,10584 6323,10584 6325,10583 6327,10583 6623,10620 6923,10620 7219,10583 7221,10583 7223,10584 7225,10584 7238,10583 7250,10580 7263,10576 8265,10447 9176,9926 9796,9129 9817,9112 9835,9092 9849,9069 9852,9063 9854,9056 9856,9049 10032,8814 10180,8559 10297,8289 L 10299,8288 Z M 9586,4890 C 9669,5015 9743,5145 9808,5280 L 8239,6186 C 8183,6046 8107,5915 8014,5796 L 9586,4890 Z M 7450,3454 C 8169,3603 8819,3980 9304,4530 L 7670,5473 C 7600,5425 7527,5383 7450,5347 L 7450,3454 Z M 6547,3398 C 6622,3393 6697,3386 6773,3386 6849,3386 6924,3393 6999,3398 L 6999,5211 C 6849,5187 6697,5187 6547,5211 L 6547,3398 Z M 6096,5347 C 6019,5383 5946,5425 5876,5473 L 4242,4530 C 4727,3980 5377,3603 6096,3454 L 6096,5347 Z M 3960,4889 L 5533,5796 C 5439,5915 5363,6046 5307,6186 L 3738,5280 C 3803,5145 3878,5015 3960,4890 L 3960,4889 Z M 3563,7844 C 3327,7149 3327,6395 3563,5700 L 5199,6645 C 5196,6687 5193,6729 5193,6772 5193,6815 5196,6857 5199,6899 L 3563,7844 Z M 3960,8656 C 3877,8531 3803,8400 3738,8265 L 5307,7360 C 5363,7500 5439,7631 5532,7750 L 3960,8656 Z M 6096,10092 C 5377,9943 4727,9566 4242,9016 L 5876,8073 C 5946,8121 6019,8163 6096,8199 L 6096,10092 Z M 6999,10148 C 6924,10153 6849,10160 6773,10160 6697,10160 6622,10153 6547,10148 L 6547,8335 C 6697,8359 6849,8359 6999,8335 L 6999,10148 Z M 5644,6773 C 5644,6150 6150,5644 6773,5644 7396,5644 7902,6150 7902,6773 7901,7396 7396,7901 6773,7902 6150,7902 5644,7396 5644,6773 Z M 7450,8199 C 7527,8163 7600,8120 7670,8073 L 9304,9015 C 8819,9565 8169,9943 7450,10092 L 7450,8199 Z M 9586,8657 L 8013,7750 C 8107,7631 8183,7500 8239,7360 L 9808,8266 C 9743,8401 9668,8531 9586,8656 L 9586,8657 Z M 9983,7845 L 8347,6901 C 8350,6859 8353,6816 8353,6773 8353,6731 8350,6688 8347,6646 L 9983,5702 C 10219,6397 10219,7151 9983,7846 L 9983,7845 Z"/>
         <path fill="rgb(105,195,207)" stroke="none" d="M 6773,6096 C 6399,6096 6096,6399 6096,6773 6096,7147 6399,7450 6773,7450 7147,7450 7450,7147 7450,6773 7450,6399 7147,6096 6773,6096 L 6773,6096 Z M 6773,6999 C 6648,6999 6547,6898 6547,6773 6547,6648 6648,6547 6773,6547 6898,6547 6999,6648 6999,6773 6999,6898 6898,6999 6773,6999 L 6773,6999 Z"/>
         <path fill="rgb(105,195,207)" stroke="none" d="M 6999,2483 C 6999,2525 6989,2560 6969,2596 6948,2632 6922,2658 6886,2679 6850,2700 6815,2709 6773,2709 6731,2709 6696,2700 6660,2679 6624,2658 6598,2632 6577,2596 6557,2560 6547,2525 6547,2483 6547,2442 6557,2407 6577,2371 6598,2335 6624,2309 6660,2288 6696,2267 6731,2258 6773,2258 6815,2258 6850,2267 6886,2288 6922,2309 6948,2335 6969,2371 6989,2407 6999,2442 6999,2483 L 6999,2483 Z"/>
         <path fill="rgb(105,195,207)" stroke="none" d="M 4852,3028 C 4840,2938 4775,2864 4686,2840 4598,2816 4504,2848 4449,2921 4393,2993 4387,3092 4433,3171 4495,3279 4633,3316 4741,3254 4820,3208 4864,3119 4852,3028 Z"/>
         <path fill="rgb(105,195,207)" stroke="none" d="M 2945,4824 C 3024,4869 3123,4863 3196,4807 3268,4752 3300,4658 3276,4570 3253,4482 3178,4416 3088,4404 2997,4392 2908,4436 2863,4515 2800,4623 2837,4761 2945,4824 L 2945,4824 Z"/>
         <path fill="rgb(105,195,207)" stroke="none" d="M 2709,6773 C 2709,6815 2700,6850 2679,6886 2658,6922 2632,6948 2596,6969 2560,6989 2525,6999 2483,6999 2442,6999 2407,6989 2371,6969 2335,6948 2309,6922 2288,6886 2267,6850 2258,6815 2258,6773 2258,6731 2267,6696 2288,6660 2309,6624 2335,6598 2371,6577 2407,6557 2442,6547 2483,6547 2525,6547 2560,6557 2596,6577 2632,6598 2658,6624 2679,6660 2700,6696 2709,6731 2709,6773 L 2709,6773 Z"/>
         <path fill="rgb(105,195,207)" stroke="none" d="M 2945,8722 C 2866,8768 2822,8857 2834,8947 2846,9038 2912,9112 3000,9136 3088,9159 3182,9128 3237,9055 3293,8983 3299,8884 3254,8805 3191,8697 3053,8660 2945,8722 L 2945,8722 Z"/>
         <path fill="rgb(105,195,207)" stroke="none" d="M 4491,10309 C 4418,10364 4387,10458 4410,10546 4434,10634 4508,10700 4599,10712 4689,10724 4778,10680 4824,10601 4886,10493 4849,10355 4741,10292 4662,10247 4563,10253 4491,10309 Z"/>
         <path fill="rgb(105,195,207)" stroke="none" d="M 6999,11063 C 6999,11104 6989,11139 6969,11175 6948,11211 6922,11237 6886,11258 6850,11279 6815,11288 6773,11288 6731,11288 6696,11279 6660,11258 6624,11237 6598,11211 6577,11175 6557,11139 6547,11104 6547,11063 6547,11021 6557,10986 6577,10950 6598,10914 6624,10888 6660,10867 6696,10846 6731,10837 6773,10837 6815,10837 6850,10846 6886,10867 6922,10888 6948,10914 6969,10950 6989,10986 6999,11021 6999,11063 L 6999,11063 Z"/>
         <path fill="rgb(105,195,207)" stroke="none" d="M 8694,10517 C 8706,10608 8771,10682 8859,10706 8948,10729 9041,10698 9097,10625 9152,10553 9159,10454 9113,10375 9051,10267 8913,10230 8805,10292 8726,10338 8682,10427 8694,10517 Z"/>
         <path fill="rgb(105,195,207)" stroke="none" d="M 10601,8722 C 10522,8677 10423,8683 10350,8739 10278,8794 10246,8888 10270,8976 10293,9064 10368,9130 10458,9142 10549,9154 10638,9110 10683,9031 10746,8923 10709,8785 10601,8722 L 10601,8722 Z"/>
         <path fill="rgb(105,195,207)" stroke="none" d="M 11288,6773 C 11288,6815 11279,6850 11258,6886 11237,6922 11211,6948 11175,6969 11139,6989 11104,6999 11063,6999 11021,6999 10986,6989 10950,6969 10914,6948 10888,6922 10867,6886 10846,6850 10837,6815 10837,6773 10837,6731 10846,6696 10867,6660 10888,6624 10914,6598 10950,6577 10986,6557 11021,6547 11063,6547 11104,6547 11139,6557 11175,6577 11211,6598 11237,6624 11258,6660 11279,6696 11288,6731 11288,6773 L 11288,6773 Z"/>
         <path fill="rgb(105,195,207)" stroke="none" d="M 10375,4433 C 10296,4478 10252,4567 10264,4658 10276,4748 10341,4823 10429,4846 10518,4870 10611,4838 10667,4766 10722,4693 10729,4594 10683,4515 10621,4407 10483,4370 10375,4433 L 10375,4433 Z"/>
         <path fill="rgb(105,195,207)" stroke="none" d="M 9055,3237 C 9128,3182 9160,3088 9136,3000 9112,2911 9038,2846 8947,2834 8857,2822 8768,2866 8722,2945 8660,3053 8697,3191 8805,3254 8884,3299 8983,3293 9055,3237 Z"/>
        </g>
       </g>
      </g>
     </g>
    </g>
   </g>
  </g>
 </g>
</svg>